<svg width="280" height="136" viewBox="0 0 280 136" fill="none" xmlns="http://www.w3.org/2000/svg">
<path fill-rule="evenodd" clip-rule="evenodd" d="M105.39 112.289C89.9421 125.899 61.5061 119.626 49.0811 100.955C36.6561 82.2828 41.7121 57.0768 60.3721 44.6398L60.3641 44.6288C60.7061 44.4208 61.0421 44.2058 61.3711 43.9878C69.6121 38.5248 74.0361 29.2558 69.7931 20.2718C65.5501 11.2868 54.8271 7.44376 45.8431 11.6868C36.8581 15.9298 33.0151 26.6528 37.2581 35.6368C38.5171 38.3028 40.3501 40.5118 42.5361 42.1958C26.2861 60.2198 23.6221 87.6018 37.6851 108.734C54.3281 133.745 88.0961 140.527 113.106 123.884L105.39 112.289Z" fill="#FAEDE6"/>
<path fill-rule="evenodd" clip-rule="evenodd" d="M69.7931 20.2718C74.0361 29.2558 69.6111 38.5258 61.3711 43.9878C61.0411 44.2068 60.7061 44.4208 60.3641 44.6288L60.3721 44.6398C60.3801 44.6348 60.388 44.6275 60.397 44.6225L105.414 112.269C105.403 112.279 105.391 112.287 105.38 112.296C105.384 112.294 105.387 112.292 105.39 112.289L105.407 112.314C114.679 101.539 120.116 87.4115 119.621 72.0845C118.655 42.1505 95.482 18.1825 66.43 15.4365C67.772 16.8205 68.9241 18.4318 69.7931 20.2718Z" fill="#B5E3C4"/>
<path fill-rule="evenodd" clip-rule="evenodd" d="M42.5361 42.1958C40.3501 40.5118 38.5171 38.3038 37.2581 35.6368C34.8271 30.4888 35.0612 24.7746 37.3862 20.0306C15.9242 29.3636 1.23021 51.0676 2.03121 75.8816C2.51621 90.8906 8.59821 104.39 18.1902 114.479C18.1892 114.481 18.1862 114.483 18.1862 114.483C18.2942 114.596 18.4102 114.701 18.5192 114.814C18.9592 115.269 19.3962 115.727 19.8502 116.168C19.8562 116.164 19.8632 116.161 19.8692 116.157C20.7202 116.985 21.5942 117.789 22.4902 118.568C26.0402 113.516 31.3252 109.825 37.4042 108.292C23.6682 87.2206 26.3981 60.0948 42.5361 42.1958Z" fill="#B5E3C4"/>
<path fill-rule="evenodd" clip-rule="evenodd" d="M55.2342 2.08946C40.9402 0.909461 28.3962 11.5405 27.2162 25.8335C26.4552 35.0595 30.6172 43.5505 37.5042 48.7335C39.0042 46.4485 40.6761 44.2588 42.5361 42.1958C40.3501 40.5118 38.5171 38.3038 37.2581 35.6368C33.0151 26.6528 36.8581 15.9298 45.8431 11.6868C54.6811 7.51276 65.1892 11.1765 69.5682 19.8515L76.6372 17.0375C72.8282 8.85646 64.8722 2.88546 55.2342 2.08946Z" fill="#FF302E"/>
<path fill-rule="evenodd" clip-rule="evenodd" d="M37.4042 108.292C31.3142 109.828 26.0193 113.528 22.4703 118.594C24.5813 120.35 26.8183 121.958 29.1643 123.41C30.8863 121.008 33.2163 118.991 36.0783 117.638C38.4513 116.517 40.9453 115.971 43.4093 115.923C41.3383 113.724 39.4141 111.333 37.6851 108.734C37.5881 108.588 37.5002 108.439 37.4042 108.292Z" fill="#03691F"/>
<path fill-rule="evenodd" clip-rule="evenodd" d="M60.397 44.6225C41.717 57.0535 36.6501 82.2748 49.0811 100.955C61.5121 119.635 89.971 125.906 105.414 112.269L60.397 44.6225Z" fill="#03691F"/>
<path fill-rule="evenodd" clip-rule="evenodd" d="M62.6294 28.499C64.8254 27.462 65.7654 24.841 64.7274 22.645C63.6904 20.448 61.0694 19.509 58.8734 20.546C56.6774 21.583 55.7374 24.204 56.7754 26.401C57.8124 28.597 60.4334 29.536 62.6294 28.499Z" fill="#03691F"/>
<path fill-rule="evenodd" clip-rule="evenodd" d="M70.7225 32.0881L97.7975 13.5731C98.3495 13.1641 98.0095 12.2881 97.3265 12.3601L76.6385 17.0371L69.5682 19.8515C69.6402 19.9945 69.7251 20.1268 69.7931 20.2718C71.6841 24.2758 71.8445 28.3331 70.7225 32.0881Z" fill="#03691F"/>
<path fill-rule="evenodd" clip-rule="evenodd" d="M162.751 55.8813H152.839V80.7493H146.883V55.8813H136.97V50.3163H162.751V55.8813Z" fill="#B5E3C4"/>
<path fill-rule="evenodd" clip-rule="evenodd" d="M177.733 61.6633L178.168 58.7073H183.037V80.7493H178.168L177.733 77.7923C176.515 79.5753 174.516 81.2273 170.733 81.2273C164.821 81.2273 160.517 76.1843 160.517 69.7063C160.517 63.2283 164.821 58.2293 170.733 58.2293C174.516 58.2293 176.515 59.8813 177.733 61.6633ZM166.342 69.7063C166.342 73.4893 168.777 75.9233 171.907 75.9233C174.689 75.9233 177.472 73.7933 177.472 69.8373V69.6193C177.472 65.6633 174.689 63.5323 171.907 63.5323C168.777 63.5323 166.342 65.9243 166.342 69.7063Z" fill="#B5E3C4"/>
<path fill-rule="evenodd" clip-rule="evenodd" d="M210.76 69.7065C210.76 76.1845 206.412 81.2275 200.5 81.2275C197.326 81.2275 195.022 79.9235 193.891 78.3145V90.0965H188.239V58.7075H193.109L193.5 61.6635C194.717 59.8805 196.761 58.2295 200.5 58.2295C206.412 58.2295 210.76 63.2285 210.76 69.7065ZM193.761 69.6195V69.8805C193.804 73.7495 196.587 75.9235 199.325 75.9235C202.413 75.9235 204.89 73.4885 204.89 69.7065C204.89 65.9245 202.456 63.5325 199.325 63.5325C196.543 63.5325 193.761 65.6635 193.761 69.6195Z" fill="#B5E3C4"/>
<path fill-rule="evenodd" clip-rule="evenodd" d="M221.412 58.7073H226.455V63.8373H221.368L221.281 72.7493C221.281 75.0103 221.977 75.9233 224.151 75.9233C225.238 75.9233 225.846 75.7933 226.455 75.6193V80.5753C225.759 80.8363 224.629 81.0533 222.89 81.0533C218.064 81.0533 215.586 79.0973 215.63 74.0973L215.717 63.8373H212.108V58.7073H215.717L215.76 53.3593H221.455L221.412 58.7073Z" fill="#B5E3C4"/>
<path fill-rule="evenodd" clip-rule="evenodd" d="M245.678 61.6633L246.113 58.7073H250.982V80.7493H246.113L245.678 77.7923C244.46 79.5753 242.461 81.2273 238.678 81.2273C232.766 81.2273 228.462 76.1843 228.462 69.7063C228.462 63.2283 232.766 58.2293 238.678 58.2293C242.461 58.2293 244.46 59.8813 245.678 61.6633ZM234.287 69.7063C234.287 73.4893 236.722 75.9233 239.852 75.9233C242.634 75.9233 245.417 73.7933 245.417 69.8373V69.6193C245.417 65.6633 242.634 63.5323 239.852 63.5323C236.722 63.5323 234.287 65.9243 234.287 69.7063Z" fill="#B5E3C4"/>
<path fill-rule="evenodd" clip-rule="evenodd" d="M278.706 69.7065C278.706 76.1845 274.358 81.2275 268.446 81.2275C265.272 81.2275 262.968 79.9235 261.837 78.3145V90.0965H256.185V58.7075H261.055L261.446 61.6635C262.663 59.8805 264.707 58.2295 268.446 58.2295C274.358 58.2295 278.706 63.2285 278.706 69.7065ZM261.707 69.6195V69.8805C261.75 73.7495 264.533 75.9235 267.272 75.9235C270.359 75.9235 272.836 73.4885 272.836 69.7065C272.836 65.9245 270.402 63.5325 267.272 63.5325C264.489 63.5325 261.707 65.6635 261.707 69.6195Z" fill="#B5E3C4"/>
<path fill-rule="evenodd" clip-rule="evenodd" d="M158.263 101.182H152.22C152.133 98.7483 150.611 97.4003 148.524 97.4003C146.394 97.4003 145.09 98.5743 145.09 100.66C145.09 102.964 146.742 103.704 150.437 105.008C156.915 107.182 159.22 109.878 159.22 114.442C159.22 120.311 154.828 123.659 149.089 123.659C142.133 123.659 138.525 119.573 138.351 113.79H144.394C144.524 116.79 146.133 118.398 149.176 118.398C151.698 118.398 153.176 116.964 153.176 114.964C153.176 112.921 151.567 111.747 147.785 110.486C142.264 108.703 139.047 106.269 139.047 101.182C139.047 95.8783 142.655 92.0963 148.654 92.0963C154.35 92.0963 158.002 95.1393 158.263 101.182Z" fill="#B5E3C4"/>
<path fill-rule="evenodd" clip-rule="evenodd" d="M183.048 112.051V113.79H167.701C167.875 116.703 169.919 118.746 173.005 118.746C175.179 118.746 176.831 117.833 177.44 116.181H182.918C181.57 120.833 178.179 123.572 172.831 123.572C166.31 123.572 161.876 119.051 161.876 112.095C161.876 105.443 166.266 100.574 172.831 100.574C178.657 100.574 183.048 104.225 183.048 112.051ZM167.745 109.877H177.353C177.309 107.095 175.484 105.268 172.701 105.268C169.875 105.268 168.006 107.181 167.745 109.877Z" fill="#B5E3C4"/>
<path fill-rule="evenodd" clip-rule="evenodd" d="M205.415 108.791V123.094H199.72V110.008C199.72 107.443 198.633 106.052 196.589 106.052C194.416 106.052 192.676 107.791 192.676 111.443V123.094H187.068V101.052H191.894L192.329 103.921C193.329 102.052 195.329 100.574 198.285 100.574C202.98 100.574 205.415 103.791 205.415 108.791Z" fill="#B5E3C4"/>
<path fill-rule="evenodd" clip-rule="evenodd" d="M231.456 123.094H226.587L226.152 120.137C224.935 121.92 222.935 123.572 219.153 123.572C213.24 123.572 208.936 118.529 208.936 112.051C208.936 105.573 213.24 100.574 219.196 100.574C222.326 100.574 224.63 101.878 225.804 103.443V91.3562H231.456V123.094ZM214.761 112.051C214.761 115.834 217.196 118.268 220.326 118.268C223.109 118.268 225.891 116.138 225.891 112.182V111.921C225.848 108.008 223.065 105.878 220.326 105.878C217.24 105.878 214.761 108.312 214.761 112.051Z" fill="#B5E3C4"/>
</svg>
